<?xml version="1.0" encoding="UTF-8"?>
<svg id="Capa_2" data-name="Capa 2" xmlns="http://www.w3.org/2000/svg" viewBox="0 0 827.67 208.02">
  <defs>
    <style>
      .cls-1 {
        fill: #000;
      }
    </style>
  </defs>
  <g id="Capa_2-2" data-name="Capa 2">
    <path class="cls-1" d="M204.23,0c10.65,0,19.29,8.64,19.29,19.29V122.7c0,42.51,22.42,54.67,45.97,54.67,27.23,0,45.14-13.92,45.14-54.67V19.29c0-10.65,8.64-19.29,19.29-19.29h0c10.65,0,19.29,8.64,19.29,19.29V120.77c0,68.94-39.62,87.25-84.32,87.25s-84.05-19.34-84.05-86.03V19.29c0-10.65,8.64-19.29,19.29-19.29h.09Z"/>
    <path class="cls-1" d="M125.41,96.65c14.51-6,27.26-21.19,27.26-44.57C152.68,24.81,133.39,0,85.93,0H0V186.34c0,10.43,8.46,18.89,18.89,18.89h0c10.43,0,18.89-8.46,18.89-18.89V112.69h41.74c27.9,0,39.83,12.07,39.83,30.57,0,21-13.28,31.73-37.88,31.73H47.1v30.23h41.47c42.03,0,70.28-24.64,70.28-60.98,0-28.07-19.43-42.61-33.44-47.59Zm-44.62-14.2H37.78V30.23h45.3c19.51,0,31.47,9.54,31.47,25.65s-9.7,26.57-33.75,26.57Z"/>
    <g>
      <path class="cls-1" d="M478.94,91.08v-1.08c0-.4-.01-.79-.01-1.18h.01V17.61C478.94,7.89,471.05,0,461.33,0h0C451.6,0,443.71,7.89,443.71,17.61V205.23h35.46v-69.19c0-15.04-.05-30.53-.22-44.96h-.01Z"/>
      <path class="cls-1" d="M580.77,0V67.44c0,33.62-.09,68.14,2.11,91.25h-.5C572.23,136.34,515.2,46.73,488.26,0h0V59.79c20.77,38.53,62.49,111.51,81.88,145.44h45.88V0h-35.25Z"/>
    </g>
    <g>
      <path class="cls-1" d="M730.88,87.01C719.32,63.82,700,27.05,685.69,0h-43.66l70.26,123.78,18.59-36.76Z"/>
      <path class="cls-1" d="M787.19,0c-8.68,15.92-19.58,36.02-29.34,54.54l-42.94,87.09v44.31c0,10.65,8.64,19.29,19.29,19.29s19.29-8.64,19.29-19.29v-54.54c0-3.74,.71-4.72,1.51-6.12L827.67,0h-40.48Z"/>
    </g>
    <path class="cls-1" d="M398.47,0C387.84,0,379.22,8.62,379.22,19.25V205.23h38.49V19.25C417.71,8.62,409.09,0,398.47,0Zm0,48.5c-5.87,0-10.62-4.12-10.62-13.86s10.62-19.32,10.62-19.32c0,0,10.62,9.58,10.62,19.32s-4.76,13.86-10.62,13.86Z"/>
  </g>
</svg>