<?xml version="1.0" encoding="UTF-8"?>
<svg id="Capa_2" data-name="Capa 2" xmlns="http://www.w3.org/2000/svg" viewBox="0 0 633.51 617.63">
  <defs>
    <style>
      .cls-1 {
        fill: #fff;
      }
    </style>
  </defs>
  <g id="Capa_2-2" data-name="Capa 2">
    <path class="cls-1" d="M630.92,385.83l-7.28,9.12-10.39,13.04-7.28,9.12-10.4,13.04-7.28,9.13-10.39,13.04-7.28,9.12-10.39,13.03h0s-7.28,9.13-7.28,9.13l-10.4,13.04-.84,1.05h-16.68l6.53-8.18,7.28-9.13,10.4-13.04,7.27-9.12h0s10.4-13.04,10.4-13.04l7.28-9.12,10.39-13.04,7.28-9.13,10.4-13.03,7.27-9.13,10.4-13.04,7.28-9.12-2.6-11.38-7.28,9.12-10.39,13.04-7.28,9.12-10.4,13.04-7.28,9.13-10.39,13.04-7.28,9.12-10.39,13.03-7.28,9.13-10.4,13.04-7.28,9.13-15.6,19.56h-16.67l28.56-35.81,7.28-9.13,10.4-13.04,7.28-9.13,10.39-13.03,7.28-9.13,10.39-13.03h0s7.28-9.13,7.28-9.13l10.4-13.04,7.28-9.12,10.39-13.04,7.28-9.12-2.6-11.39-7.27,9.13-10.4,13.03-7.28,9.13-10.39,13.03-7.28,9.13-10.4,13.04-7.28,9.12-10.39,13.04-7.28,9.12-10.4,13.04-7.28,9.13-37.64,47.2h-16.67l50.6-63.45,7.28-9.13,10.4-13.04,7.28-9.13,10.39-13.03h0s7.28-9.13,7.28-9.13l10.4-13.03,7.28-9.13,10.39-13.04,7.28-9.12,10.39-13.04,7.28-9.12-2.6-11.38-7.27,9.12-10.4,13.04-7.27,9.12h0s-10.4,13.04-10.4,13.04l-7.28,9.13-10.4,13.03-7.27,9.13-10.4,13.03-7.28,9.13-10.39,13.04-7.28,9.13-59.68,74.83h-16.68l72.64-91.09,7.28-9.13,10.4-13.04,7.28-9.13,10.4-13.03,7.27-9.13,10.4-13.03,7.28-9.13,10.39-13.04,7.28-9.12,10.4-13.04,7.27-9.12-2.59-11.38-7.28,9.13-10.4,13.03-7.27,9.13-10.4,13.03-7.28,9.13-10.4,13.04-7.27,9.12-10.4,13.04-7.27,9.12-10.4,13.04-7.28,9.13-81.72,102.47h-16.68l94.69-118.73,7.28-9.13,10.4-13.03h0s7.27-9.13,7.27-9.13l10.4-13.04,7.27-9.12,10.4-13.04,7.28-9.13,10.4-13.03,7.27-9.13,10.4-13.03,.68-.85,5.83-7.32,.76-.96-2.59-11.38-.78-3.39-2.59-11.38h0l-3.7-16.25-2.6-11.39-3.71-16.25-2.6-11.37-3.71-16.27-2.6-11.37-3.71-16.27-2.59-11.37h0l-10.51-5.07,2.6,11.38,3.71,16.26,2.59,11.38h.01l3.71,16.26,2.59,11.38,3.71,16.25,2.6,11.39,3.71,16.25,2.6,11.38,3.71,16.26,.3,1.31-5.16,6.47-5.24,6.57-2.33-10.21-2.59-11.38-3.71-16.26h-.01l-2.59-11.38-3.71-16.25-2.6-11.39-3.71-16.24-2.6-11.38-3.71-16.27-2.59-11.37h0l-3.71-16.26-2.59-11.38-10.51-5.06,2.59,11.37,3.71,16.26,2.6,11.38,3.71,16.27,2.6,11.37,3.71,16.25,2.6,11.39,3.7,16.25h.01l2.59,11.38,3.71,16.26,2.6,11.38,5.57,24.4-10.4,13.03-10.19-44.67-2.6-11.38-3.71-16.26-2.6-11.37-3.71-16.25-2.6-11.39-3.7-16.25h-.01l-2.59-11.38-3.71-16.26-2.6-11.38-3.71-16.26-2.6-11.38-10.52-5.06,2.6,11.37,3.71,16.26,2.6,11.38,3.71,16.26,2.59,11.38h.01l3.7,16.25,2.6,11.39,3.71,16.25,2.6,11.38,3.71,16.26,2.6,11.37,13.43,58.87-10.39,13.04-18.07-79.14-2.59-11.38-3.71-16.26h0l-2.59-11.38-3.71-16.25-2.6-11.38-3.71-16.25-2.59-11.38h-.01l-3.71-16.26-2.59-11.38-3.71-16.26h-.01l-2.59-11.38-10.52-5.06,2.6,11.37,3.71,16.26,2.6,11.38,3.71,16.27,2.6,11.37,3.7,16.25h.01l2.59,11.39h.01l3.7,16.25,2.6,11.38,3.71,16.26,2.6,11.38,21.3,93.32-10.4,13.04-25.92-113.6h-.01l-2.59-11.38-3.71-16.26-2.6-11.37-3.71-16.25-2.6-11.39-3.71-16.25-2.59-11.38-3.71-16.26h-.01l-2.59-11.38-3.71-16.26-2.6-11.38-10.51-5.06,2.59,11.38h.01l3.71,16.26,2.59,11.38,3.71,16.26,2.6,11.38,3.71,16.25,2.6,11.38,3.71,16.25,2.59,11.38,3.71,16.26h.01l2.59,11.38,29.17,127.78-10.4,13.04-33.79-148.06-2.6-11.37h0s-3.71-16.26-3.71-16.26l-2.6-11.38-3.71-16.25-2.6-11.39-3.7-16.25-2.6-11.38-3.71-16.26-2.6-11.38-3.71-16.26-.24-1.06-2.09-9.12-.27-1.2-10.52-5.06-3.13-1.51-10.51-5.06-15.02-7.24-10.52-5.06h-.01l-15.01-7.24h-.01l-10.51-5.06-15.02-7.24h-.01l-10.51-5.06-15.03-7.24-10.51-5.06-10.52,5.06,10.52,5.07,15.02,7.23h.01l10.51,5.07,15.02,7.23h.01l10.51,5.07,15.02,7.23,10.52,5.07,15.02,7.23,10.51,5.06h.01l15.02,7.24,1.22,.58h0s1.84,8.07,1.84,8.07l1.87,8.2-9.44-4.55-10.51-5.06-15.03-7.24-10.51-5.06-15.02-7.24h-.01l-10.51-5.06h-.01l-15.01-7.24h-.01l-10.51-5.06-15.03-7.24-10.51-5.06-15.03-7.24-10.51-5.06-10.52,5.06,10.52,5.07,15.02,7.23h.01l10.51,5.07,15.02,7.23h.01l10.51,5.07,15.02,7.23,10.52,5.07,15.02,7.23,10.51,5.06h.01l15.02,7.24,10.51,5.06h.01l22.55,10.86h0s3.71,16.27,3.71,16.27l-41.29-19.89-10.52-5.06-15.02-7.24-10.52-5.06-15.01-7.23h-.01l-10.52-5.07-15.01-7.23h-.01l-10.51-5.07-15.02-7.23h0l-10.51-5.07-15.03-7.24h-.01l-10.51-5.06-10.51,5.06,10.51,5.07,15.03,7.24h.01l10.51,5.06,15.02,7.24h.01l10.51,5.06,15.01,7.23,10.53,5.07,15.02,7.23,10.51,5.07h.01l15.02,7.23,10.51,5.06,54.41,26.2h0s3.7,16.25,3.7,16.25l-73.12-35.21h-.01l-10.51-5.07-15.02-7.23-10.52-5.07-15.02-7.23-10.52-5.07-15.02-7.23-10.51-5.06-15.03-7.24-10.52-5.06-15.03-7.24-10.51-5.06-10.53,5.06,10.52,5.07,15.03,7.24,10.51,5.06,15.03,7.24,10.52,5.06,15.01,7.23,10.53,5.07,15.02,7.23,10.51,5.07,15.03,7.23,10.5,5.06h.01l86.25,41.54,3.71,16.25-104.97-50.55h-.01l-10.51-5.07-15.03-7.23-10.51-5.07-15.02-7.23-10.52-5.07-15.02-7.23-10.51-5.06-15.03-7.24-10.52-5.06-15.03-7.24-10.51-5.06-10.52,5.06,10.52,5.06,15.03,7.24,10.51,5.06,15.03,7.24,10.51,5.06h.01l15.01,7.24,10.52,5.06h.01l15.02,7.24,10.51,5.06,15.02,7.24h.01l10.51,5.06,118.09,56.87,3.71,16.26-136.83-65.89-10.51-5.07-15.03-7.23-10.51-5.07-15.02-7.23-10.52-5.07h-.01l-15.01-7.23-10.52-5.06-15.02-7.24-10.52-5.06-15.03-7.24-.97-.47-8.43-4.06-1.11-.53h-.01l-10.51,5.06-3.13,1.51-10.52,5.06h0s-15.02,7.24-15.02,7.24l-10.51,5.06-15.02,7.23-10.52,5.07-15.02,7.23-10.52,5.07-15.03,7.23h0s-10.51,5.07-10.51,5.07l-2.6,11.37,10.52-5.06,15.02-7.23,10.52-5.07,15.02-7.23,10.52-5.07,15.02-7.23,10.51-5.06,15.03-7.24,10.52-5.07,15.02-7.23,1.22-.59,7.46,3.6,7.57,3.64-9.44,4.55-10.52,5.06-15.03,7.24-10.51,5.06-15.03,7.24-10.51,5.06-15.02,7.23h0s-10.52,5.07-10.52,5.07l-15.02,7.23-10.52,5.07-15.02,7.23h0s-10.52,5.07-10.52,5.07l-2.59,11.37,10.51-5.06,15.02-7.23,10.52-5.07,15.02-7.23,10.52-5.07,15.02-7.23,10.52-5.06h0s15.02-7.24,15.02-7.24l10.52-5.06h0s15.02-7.24,15.02-7.24l10.52-5.06h0s22.55-10.87,22.55-10.87h.01l15.02,7.24-41.29,19.88h0s-10.52,5.07-10.52,5.07l-15.02,7.23h0s-10.52,5.07-10.52,5.07l-15.03,7.24-10.51,5.06-15.02,7.23-10.52,5.07-15.02,7.23-10.52,5.07-15.02,7.23-10.52,5.07-2.59,11.37,10.51-5.06,15.02-7.23,10.52-5.07,15.03-7.24,10.51-5.06,15.02-7.23,10.52-5.07,15.02-7.23,10.52-5.07,15.03-7.23h0s10.51-5.07,10.51-5.07l54.4-26.19,15.02,7.23-73.13,35.21-10.51,5.06h0s-15.03,7.24-15.03,7.24l-10.52,5.07-15.02,7.23-10.51,5.06h0s-15.03,7.24-15.03,7.24l-10.51,5.06-15.03,7.24-10.52,5.07-15.02,7.23-10.51,5.06-2.6,11.39,10.51-5.06,15.03-7.24,10.51-5.06,15.03-7.24,10.51-5.06,15.03-7.23h0s10.51-5.07,10.51-5.07l15.02-7.23,10.52-5.07,15.03-7.23h0s10.51-5.07,10.51-5.07l86.25-41.53,15.02,7.23-104.98,50.55h0s-10.51,5.07-10.51,5.07l-15.03,7.23h0s-10.52,5.07-10.52,5.07l-15.02,7.23-10.51,5.06h0s-15.03,7.24-15.03,7.24l-10.51,5.06h0s-15.02,7.24-15.02,7.24l-10.52,5.06h0s-15.03,7.24-15.03,7.24l-10.51,5.06-2.6,11.38,10.52-5.06,15.02-7.24,10.52-5.06,15.02-7.24,10.52-5.06,15.02-7.23h0s10.51-5.07,10.51-5.07l15.03-7.23h0s10.52-5.07,10.52-5.07l15.02-7.23,10.52-5.07,118.09-56.87,15.02,7.24-136.82,65.89-10.52,5.06-15.02,7.24h-.01l-10.51,5.07h-.01l-15.02,7.23-10.51,5.06-15.02,7.24h0l-10.51,5.06-15.02,7.24-10.52,5.06-15.02,7.24h-.01l-.97,.47-8.44,4.06-1.1,.53-2.6,11.38-.77,3.39-2.6,11.38-3.71,16.26-2.6,11.38-3.71,16.26-2.59,11.37-3.71,16.26-2.6,11.38-3.71,16.25-2.6,11.38,7.28,9.13,2.59-11.38,3.72-16.26,2.59-11.37,3.71-16.26,2.6-11.38,3.71-16.26,2.6-11.38,3.71-16.25,2.6-11.39,3.71-16.26,.3-1.32,7.45-3.59,7.57-3.64-2.33,10.21-2.6,11.38-3.71,16.26-2.6,11.38-3.71,16.26-2.59,11.38-3.71,16.26-2.6,11.37-3.71,16.26-2.6,11.38-3.71,16.26-2.6,11.38,7.28,9.12,2.6-11.38,3.71-16.25,2.6-11.38,3.71-16.26,2.6-11.37h0s3.71-16.26,3.71-16.26l2.59-11.38,3.71-16.26,2.6-11.38,3.71-16.26,2.6-11.38,5.57-24.41,15.02-7.23-10.19,44.68-2.6,11.38-3.71,16.25-2.6,11.39-3.71,16.25-2.6,11.38-3.71,16.26-2.59,11.38-3.72,16.26-2.59,11.38-3.71,16.25-2.6,11.38,7.27,9.12,2.6-11.38,3.71-16.25,2.6-11.38,3.71-16.26,2.6-11.37,3.71-16.26,2.6-11.38,3.71-16.26,2.59-11.38,3.72-16.26,2.59-11.38,13.44-58.86,15.02-7.24-18.06,79.14-2.6,11.38-3.71,16.25-2.6,11.39-3.71,16.25-2.6,11.38h0s-3.71,16.26-3.71,16.26l-2.59,11.38-3.71,16.26-2.6,11.37-3.71,16.26-2.6,11.38,7.28,9.13,2.6-11.38h0s3.71-16.26,3.71-16.26l2.59-11.38,3.71-16.26,2.6-11.37,3.71-16.26,2.6-11.38,3.71-16.26,2.6-11.38,3.71-16.26,2.59-11.37h0s21.3-93.33,21.3-93.33h0l15.02-7.24-25.93,113.6-2.6,11.38-3.71,16.25-2.59,11.39-3.71,16.25-2.6,11.38-3.71,16.26-2.6,11.38-3.71,16.26-2.6,11.38-3.71,16.25-2.6,11.38h0s7.28,9.13,7.28,9.13l2.6-11.38,3.71-16.25,2.6-11.38,3.71-16.26,2.6-11.38,3.71-16.26,2.6-11.38,3.71-16.25h0s2.59-11.39,2.59-11.39l3.71-16.25,2.6-11.38,29.17-127.79,15.02-7.24-33.79,148.07-2.6,11.38-3.71,16.25-2.6,11.38h0s-3.71,16.26-3.71,16.26l-2.59,11.38h0s-3.72,16.26-3.72,16.26l-2.59,11.38-3.71,16.25h0s-2.6,11.38-2.6,11.38l-3.71,16.26-.24,1.05-2.08,9.13-.28,1.2,7.28,9.12,2.16,2.72,7.28,9.12,10.4,13.04,7.28,9.13,10.39,13.03,7.28,9.13,10.4,13.04,7.27,9.12,10.4,13.04,7.27,9.12h11.68l-7.28-9.12-10.39-13.04-7.28-9.12-10.4-13.04-7.28-9.13-10.39-13.03-7.28-9.13-10.4-13.04-7.27-9.12-10.4-13.04-.85-1.06,1.85-8.07,1.86-8.18,6.53,8.18,7.28,9.13,10.4,13.04,7.27,9.12,10.4,13.04,7.28,9.13,10.4,13.03,7.28,9.13,10.4,13.04,7.27,9.12,10.4,13.04,7.27,9.12h11.68l-7.28-9.12-10.4-13.04-7.27-9.12-10.4-13.04-7.28-9.13-10.39-13.03-7.28-9.13-10.4-13.04-7.28-9.12-10.39-13.04-7.29-9.13-15.6-19.56h0s3.71-16.26,3.71-16.26l28.57,35.82,7.28,9.13,10.4,13.04,7.27,9.12,10.4,13.04,7.28,9.13,10.39,13.03,7.28,9.13,10.4,13.04,7.28,9.12,10.39,13.04,7.28,9.12h11.66l-7.27-9.12-10.4-13.04-7.27-9.12-10.4-13.04-7.28-9.13-10.39-13.03-7.28-9.13-10.4-13.04-7.27-9.12-10.4-13.04-7.28-9.13-37.64-47.2,3.71-16.26,50.61,63.46,7.28,9.13,10.4,13.04,7.27,9.12,10.4,13.04,7.28,9.13,10.39,13.03,7.28,9.13,10.4,13.04,7.27,9.12,10.4,13.04,7.27,9.12h11.68l-7.28-9.12-10.4-13.04-7.27-9.12-10.4-13.04-7.28-9.13-10.39-13.03-7.28-9.13-10.4-13.04-7.27-9.12-10.4-13.04-7.28-9.13-59.68-74.83h0s3.71-16.26,3.71-16.26l72.64,91.09,7.28,9.13,10.4,13.04,7.27,9.12,10.4,13.04,7.28,9.13,10.39,13.03,7.29,9.13,10.39,13.04,7.28,9.12,10.4,13.04,7.27,9.12h11.68l-7.28-9.12-10.4-13.04-7.27-9.12-10.4-13.04-7.28-9.13-10.39-13.03-7.28-9.13-10.4-13.04-7.27-9.12-10.4-13.04-7.28-9.13-81.72-102.47h0s3.71-16.26,3.71-16.26l94.68,118.73,7.28,9.13,10.4,13.04,7.27,9.12,10.4,13.04,7.28,9.13,10.4,13.03,7.28,9.13,10.4,13.04,7.27,9.12,10.4,13.04,.67,.85,5.84,7.31,.76,.96h140.21l7.27-9.12h-143.08l-5.16-6.47-5.24-6.57h163.88l7.27-9.12h-178.42l-10.4-13.04h199.22l7.28-9.13h-213.78l-10.39-13.03h234.56l7.28-9.13h-249.12l-10.4-13.04h269.92l7.28-9.12H251.23l-10.4-13.04h305.26l7.29-9.13,2.16-2.72,7.28-9.12,10.4-13.04,7.27-9.12,10.4-13.04,7.28-9.13,10.39-13.03,7.28-9.13,10.4-13.04,7.27-9.12-2.59-11.37Zm-397.37,111.86l-103.77-130.11,37.04-162.25,149.94-72.21,149.94,72.21,37.03,162.25-103.76,130.11H233.55Z"/>
  </g>
</svg>